<?xml version="1.0" encoding="UTF-8"?>
<svg xmlns="http://www.w3.org/2000/svg" width="1024" height="1024" viewBox="0 0 1024 1024">
  <defs>
    <linearGradient id="bg" x1="0" y1="0" x2="1" y2="1">
      <stop offset="0%" stop-color="#FFF7ED"/>
      <stop offset="100%" stop-color="#FFEDD5"/>
    </linearGradient>
    <linearGradient id="stroke" x1="0" y1="0" x2="1" y2="1">
      <stop offset="0%" stop-color="#FB923C"/>
      <stop offset="100%" stop-color="#EA580C"/>
    </linearGradient>
    <filter id="shadow" x="-10%" y="-10%" width="120%" height="120%">
      <feGaussianBlur in="SourceAlpha" stdDeviation="12"/>
      <feOffset dx="0" dy="8"/>
      <feColorMatrix values="0 0 0 0 0.92
                              0 0 0 0 0.34
                              0 0 0 0 0.05
                              0 0 0 0.25 0"/>
      <feBlend in="SourceGraphic" mode="normal"/>
    </filter>
  </defs>
  <!-- Rounded square background -->
  <rect x="64" y="64" width="896" height="896" rx="200" ry="200" fill="url(#bg)"/>
  <!-- Clover shape (lucide clover scaled & centered) -->
  <g transform="translate(512 512) scale(28) translate(-12 -12)"
     fill="none" stroke="url(#stroke)" stroke-width="2.2"
     stroke-linecap="round" stroke-linejoin="round"
     filter="url(#shadow)">
    <path d="M16.17 7.83 2 22"/>
    <path d="M4.02 12a2.827 2.827 0 1 1 3.81-4.17A2.827 2.827 0 1 1 12 4.02a2.827 2.827 0 1 1 4.17 3.81A2.827 2.827 0 1 1 19.98 12a2.827 2.827 0 1 1-3.81 4.17A2.827 2.827 0 1 1 12 19.98a2.827 2.827 0 1 1-4.17-3.81A1 1 0 1 1 4.02 12"/>
    <path d="m7.83 7.83 8.34 8.34"/>
  </g>
</svg>
